<!DOCTYPE svg PUBLIC "-//W3C//DTD SVG 1.1//EN" "http://www.w3.org/Graphics/SVG/1.1/DTD/svg11.dtd">
<!-- Uploaded to: SVG Repo, www.svgrepo.com, Transformed by: SVG Repo Mixer Tools -->
<svg fill="#ffffff" height="800px" width="800px" version="1.1" id="Layer_1" xmlns="http://www.w3.org/2000/svg" xmlns:xlink="http://www.w3.org/1999/xlink" viewBox="0 0 512 512" xml:space="preserve" stroke="#ffffff">
<g id="SVGRepo_bgCarrier" stroke-width="0"/>
<g id="SVGRepo_tracerCarrier" stroke-linecap="round" stroke-linejoin="round"/>
<g id="SVGRepo_iconCarrier"> <g> <g> <path d="M466.896,87.859L381.384,2.347C379.882,0.844,377.842,0,375.716,0H119.182c-13.851,0-25.119,11.268-25.119,25.119v291.273 H67.875c-13.851,0-25.119,11.268-25.119,25.119v85.511c0,13.851,11.268,25.119,25.119,25.119h26.188v34.739 c0,13.851,11.268,25.119,25.119,25.119h324.944c13.851,0,25.119-11.268,25.119-25.119V93.528 C469.244,91.401,468.4,89.363,466.896,87.859z M383.733,27.37l58.141,58.141h-49.056c-5.01,0-9.086-4.076-9.086-9.086V27.37z M67.875,436.109c-5.01,0-9.086-4.076-9.086-9.086v-85.511c0-5.01,4.076-9.086,9.086-9.086h230.881 c5.01,0,9.086,4.076,9.086,9.086v85.511c0,5.01-4.076,9.086-9.086,9.086H67.875z M453.211,486.881c0,5.01-4.076,9.086-9.086,9.086 H119.182c-5.01,0-9.086-4.076-9.086-9.086v-34.739h188.66c13.851,0,25.119-11.268,25.119-25.119v-85.511 c0-13.851-11.268-25.119-25.119-25.119h-188.66V25.119c0-5.01,4.076-9.086,9.086-9.086h248.518v60.393 c0,13.851,11.268,25.119,25.119,25.119h60.393V486.881z"/> </g> </g> <g> <g> <path d="M119.182,350.597H84.977c-4.427,0-8.017,3.589-8.017,8.017v51.307c0,4.427,3.589,8.017,8.017,8.017 s8.017-3.589,8.017-8.017v-9.086h26.188c13.851,0,25.119-11.268,25.119-25.119C144.301,361.865,133.032,350.597,119.182,350.597z M119.182,384.802H92.994V366.63h26.188c5.01,0,9.086,4.076,9.086,9.086C128.267,380.726,124.192,384.802,119.182,384.802z"/> </g> </g> <g> <g> <path d="M187.591,350.597h-25.653c-4.427,0-8.017,3.589-8.017,8.017v51.307c0,4.427,3.589,8.017,8.017,8.017h25.653 c18.566,0,33.67-15.105,33.67-33.67C221.261,365.702,206.156,350.597,187.591,350.597z M187.591,401.904h-17.637V366.63h17.637 c9.725,0,17.637,7.912,17.637,17.637S197.316,401.904,187.591,401.904z"/> </g> </g> <g> <g> <path d="M281.653,350.597h-42.756c-4.427,0-8.017,3.589-8.017,8.017v51.307c0,4.427,3.589,8.017,8.017,8.017 s8.017-3.589,8.017-8.017v-17.637h17.637c4.427,0,8.017-3.589,8.017-8.017c0-4.427-3.589-8.017-8.017-8.017h-17.637v-9.62h34.739 c4.427,0,8.017-3.589,8.017-8.017S286.081,350.597,281.653,350.597z"/> </g> </g> <g> <g> <path d="M281.653,94.063c-51.572,0-93.528,41.956-93.528,93.528s41.956,93.528,93.528,93.528s93.528-41.956,93.528-93.528 S333.225,94.063,281.653,94.063z M281.653,265.086c-42.731,0-77.495-34.764-77.495-77.495s34.764-77.495,77.495-77.495 s77.495,34.764,77.495,77.495S324.385,265.086,281.653,265.086z"/> </g> </g> <g> <g> <path d="M281.739,136.818h-0.086c-4.427,0-7.974,3.589-7.974,8.017s3.632,8.017,8.059,8.017s8.017-3.589,8.017-8.017 S286.166,136.818,281.739,136.818z"/> </g> </g> <g> <g> <path d="M290.205,222.33h-0.534v-43.825h0.534c4.427,0,8.017-3.589,8.017-8.017s-3.589-8.017-8.017-8.017h-17.102 c-4.427,0-8.017,3.589-8.017,8.017s3.589,8.017,8.017,8.017h0.534v43.825h-0.534c-4.427,0-8.017,3.589-8.017,8.017 s3.589,8.017,8.017,8.017h17.102c4.427,0,8.017-3.589,8.017-8.017S294.632,222.33,290.205,222.33z"/> </g> </g> </g>
</svg>